# xmcd
#
# Track frame offsets:
#	150
#	17346
#	37992
#	52338
#	66460
#	82908
#	98323
#	114845
#	136036
#	152408
#
# Disc length: 2250 seconds
#
# Revision: 7
# Processed by: cddbd v1.5.2PL0 Copyright (c) Steve Scherf et al.
# Submitted via: Jack! The Knife 20 Magnifico
#
DISCID=6908c80a
DTITLE=Samuele Bersani - Nuvola Numero Nove
DYEAR=2013
DGENRE=Pop
TTITLE0=Complimenti!
TTITLE1=En e Xanax
TTITLE2=Chiamami Napoleone
TTITLE3=Desirée
TTITLE4=Ultima Chance
TTITLE5=Settimo Cielo
TTITLE6=D.A.M.S.
TTITLE7=Reazione Umana
TTITLE8=Spia Polacca
TTITLE9=Il Re Muore
EXTD=
EXTT0=Samuele Bersani
EXTT1=Samuele Bersani
EXTT2=Samuele Bersani
EXTT3=Salce, Fortuni
EXTT4=Samuele Bersani
EXTT5=Bersani, Beatino
EXTT6=Samuele Bersani
EXTT7=Samuele Bersani
EXTT8=Civello, Bersani
EXTT9=Bersani, Egokid
PLAYORDER=
